# xmcd
#
# Track frame offsets: 
#        150
#        32406
#        58633
#        85573
#        103073
#        123198
#        153014
#        171607
#        189226
#        208810
#
# Disc length: 3101 seconds
#
# Revision: 0
# Processed by: cddbd v1.5.2PL0 Copyright (c) Steve Scherf et al.
# Submitted via: ExactAudioCopyFreeDBPlugin 1.0
#
DISCID=780c1b0a
DTITLE=Various Artist - Va con tim da vui tro lai
DYEAR=1900
DGENRE=
TTITLE0=5 dong ke - Trong dong mua chieu
TTITLE1=Quang Vinh - Mien cat trang
TTITLE2=Thanh Lam - Huyen thoai ho nui coc
TTITLE3=Lam Truong - Doi chan thien than
TTITLE4=Ho Ngoc Ha - 24 gio 7 ngay
TTITLE5=Dam Vinh Hung - Nu hon xa voi
TTITLE6=Tuan HUng - Dung lam nat tim toi
TTITLE7=Trinh Nam Son - Goi tung yeu thuong
TTITLE8=Minh Thu - Uoc hen 1 chieu dong
TTITLE9=Duc Huy - Va con tim da vui tro lai
EXTD=
EXTT0=
EXTT1=
EXTT2=
EXTT3=
EXTT4=
EXTT5=
EXTT6=
EXTT7=
EXTT8=
EXTT9=
PLAYORDER=
